<svg width="578" height="180" viewBox="0 0 578 180" fill="none" xmlns="http://www.w3.org/2000/svg">
<path d="M29.08 35H0.429951V171C0.395667 172.602 0.838466 174.178 1.70206 175.528C2.56566 176.877 3.81105 177.94 5.27995 178.58C6.49922 179.095 7.82816 179.296 9.14531 179.166C10.4625 179.035 11.7258 178.576 12.8199 177.831C13.914 177.086 14.8039 176.079 15.4083 174.901C16.0128 173.724 16.3124 172.413 16.2799 171.09V137H29.0299C32.7932 137.001 36.5198 136.261 39.9969 134.822C43.474 133.383 46.6336 131.273 49.295 128.612C51.9565 125.952 54.0677 122.793 55.5081 119.316C56.9486 115.84 57.69 112.113 57.69 108.35V63.61C57.6794 56.0254 54.6617 48.7545 49.2986 43.3914C43.9355 38.0282 36.6645 35.0106 29.08 35ZM41.8399 108.36C41.8399 111.744 40.4956 114.99 38.1026 117.383C35.7097 119.776 32.4641 121.12 29.08 121.12H16.33V50.85H29.08C30.7556 50.85 32.4149 51.18 33.963 51.8213C35.5111 52.4625 36.9178 53.4024 38.1026 54.5873C39.2875 55.7722 40.2274 57.1788 40.8687 58.727C41.5099 60.2751 41.8399 61.9343 41.8399 63.61V108.36Z" fill="#00A4FF"/>
<path d="M87.41 34.23C85.5166 34.5806 83.8094 35.5926 82.5932 37.0855C81.3769 38.5783 80.7307 40.4548 80.77 42.38V129.55C80.7304 131.476 81.3762 133.354 82.5923 134.849C83.8084 136.343 85.5158 137.357 87.41 137.71C88.5503 137.908 89.7202 137.853 90.8368 137.548C91.9534 137.244 92.9896 136.698 93.872 135.95C94.7544 135.201 95.4615 134.267 95.9433 133.215C96.425 132.163 96.6697 131.017 96.66 129.86V42.08C96.6715 40.9222 96.428 39.776 95.9468 38.7228C95.4656 37.6697 94.7585 36.7353 93.8756 35.9861C92.9928 35.2369 91.9559 34.6912 90.8385 34.3877C89.7211 34.0842 88.5506 34.0304 87.41 34.23Z" fill="#00A4FF"/>
<path d="M91.44 1.36C89.724 0.881544 87.9117 0.867781 86.1887 1.32012C84.4657 1.77247 82.8939 2.67466 81.6343 3.9343C80.3746 5.19394 79.4724 6.76575 79.0201 8.48877C78.5677 10.2118 78.5815 12.0241 79.0599 13.74C79.5137 15.4002 80.3924 16.9135 81.6094 18.1305C82.8264 19.3476 84.3397 20.2263 86 20.68C87.7153 21.1562 89.5263 21.1683 91.2478 20.7149C92.9692 20.2616 94.5394 19.3591 95.7977 18.0998C97.0559 16.8405 97.9571 15.2696 98.4091 13.5478C98.8611 11.8259 98.8475 10.0149 98.3699 8.3C97.9198 6.63959 97.0435 5.12566 95.828 3.90832C94.6124 2.69098 93.0997 1.81251 91.44 1.36Z" fill="#00A4FF"/>
<path d="M150.83 35H122.18V129.63C122.151 131.415 122.72 133.157 123.796 134.582C124.872 136.006 126.393 137.029 128.118 137.489C129.842 137.949 131.671 137.819 133.313 137.119C134.955 136.42 136.316 135.192 137.18 133.63C137.796 132.435 138.099 131.104 138.06 129.76V50.85H150.82C152.496 50.85 154.155 51.18 155.703 51.8213C157.251 52.4625 158.658 53.4024 159.843 54.5873C161.028 55.7722 161.967 57.1788 162.609 58.727C163.25 60.2751 163.58 61.9343 163.58 63.61V129.61C163.559 131.208 164.006 132.777 164.866 134.124C165.726 135.471 166.962 136.536 168.42 137.19C170.098 137.896 171.968 138.008 173.719 137.508C175.469 137.008 176.997 135.926 178.05 134.44C179.019 133.018 179.519 131.33 179.48 129.61V63.61C179.469 56.0185 176.446 48.7415 171.074 43.3772C165.703 38.013 158.422 35 150.83 35Z" fill="#00A4FF"/>
<path d="M200.86 63.61V108.32C200.856 112.085 201.594 115.814 203.032 119.293C204.47 122.773 206.58 125.934 209.241 128.598C211.902 131.262 215.061 133.375 218.539 134.816C222.017 136.258 225.745 137 229.51 137H242.27V150.6C242.259 154.007 240.901 157.272 238.492 159.682C236.082 162.091 232.817 163.449 229.41 163.46C225.52 163.46 222.33 161.29 220.33 159.46C218.82 158.079 216.838 157.329 214.792 157.364C212.746 157.399 210.791 158.217 209.33 159.65C208.58 160.336 207.979 161.168 207.563 162.095C207.147 163.022 206.925 164.024 206.91 165.04C206.896 166.122 207.099 167.195 207.508 168.197C207.917 169.198 208.523 170.107 209.29 170.87C213.441 174.948 218.724 177.684 224.45 178.72C230.177 179.756 236.083 179.045 241.4 176.68C251.61 172.14 258.21 161.68 258.21 149.9V35H229.51C221.918 35 214.637 38.013 209.266 43.3772C203.894 48.7415 200.871 56.0185 200.86 63.61ZM242.27 121.08H229.51C227.835 121.08 226.176 120.75 224.628 120.109C223.081 119.467 221.675 118.527 220.491 117.342C219.307 116.157 218.368 114.75 217.728 113.202C217.088 111.654 216.759 109.995 216.76 108.32V63.61C216.759 61.9348 217.088 60.2758 217.728 58.7277C218.368 57.1797 219.307 55.7729 220.491 54.5879C221.675 53.4029 223.081 52.4629 224.628 51.8215C226.176 51.1801 227.835 50.85 229.51 50.85H242.27V121.08Z" fill="#00A4FF"/>
<path d="M311.51 35H282.86V171C282.841 172.599 283.291 174.168 284.152 175.515C285.014 176.861 286.251 177.927 287.71 178.58C288.691 178.994 289.745 179.208 290.81 179.21C292.253 179.203 293.668 178.81 294.908 178.072C296.148 177.333 297.167 176.276 297.86 175.01C298.487 173.819 298.797 172.486 298.76 171.14V137H311.52C319.118 137 326.406 133.982 331.779 128.609C337.151 123.236 340.17 115.948 340.17 108.35V63.61C340.159 56.0167 337.135 48.7383 331.761 43.3737C326.387 38.0092 319.103 34.9973 311.51 35ZM324.27 108.36C324.27 111.744 322.926 114.99 320.533 117.383C318.14 119.776 314.894 121.12 311.51 121.12H298.75V50.85H311.51C313.186 50.85 314.845 51.18 316.393 51.8213C317.941 52.4625 319.348 53.4024 320.533 54.5873C321.718 55.7722 322.657 57.1788 323.299 58.727C323.94 60.2751 324.27 61.9343 324.27 63.61V108.36Z" fill="#00A4FF"/>
<path d="M384.52 34.53C370.59 36.82 360.71 49.44 360.71 63.53V108.36C360.71 122.48 370.59 135.09 384.52 137.36C388.628 138.057 392.839 137.851 396.86 136.756C400.88 135.66 404.613 133.702 407.8 131.017C410.987 128.332 413.55 124.985 415.312 121.208C417.073 117.432 417.99 113.317 418 109.15V62.78C417.995 58.6102 417.08 54.4916 415.321 50.7112C413.561 46.9307 410.999 43.5793 407.812 40.8902C404.625 38.2011 400.89 36.239 396.868 35.1406C392.845 34.0422 388.631 33.8338 384.52 34.53ZM402.12 108.62C402.12 115.17 396.82 121.44 390.28 121.88C388.527 122.023 386.764 121.8 385.103 121.223C383.442 120.647 381.919 119.731 380.632 118.533C379.345 117.335 378.321 115.882 377.627 114.266C376.933 112.651 376.583 110.908 376.6 109.15V62.78C376.583 61.0217 376.933 59.2792 377.627 57.6637C378.321 56.0482 379.345 54.5951 380.632 53.3973C381.919 52.1994 383.442 51.2831 385.103 50.7068C386.764 50.1304 388.527 49.9068 390.28 50.05C396.82 50.49 402.12 56.76 402.12 63.31V108.62Z" fill="#00A4FF"/>
<path d="M469.7 35H441V129.63C440.981 131.229 441.431 132.798 442.292 134.145C443.154 135.491 444.391 136.557 445.85 137.21C447.534 137.915 449.408 138.022 451.162 137.515C452.915 137.007 454.443 135.915 455.49 134.42C456.448 132.998 456.94 131.314 456.9 129.6V50.85H469.7C471.376 50.85 473.035 51.18 474.583 51.8213C476.131 52.4625 477.538 53.4024 478.723 54.5873C479.908 55.7722 480.848 57.1788 481.489 58.727C482.13 60.2751 482.46 61.9343 482.46 63.61V129.61C482.427 131.212 482.87 132.787 483.734 134.137C484.597 135.486 485.842 136.549 487.31 137.19C488.291 137.604 489.345 137.818 490.41 137.82C491.854 137.813 493.27 137.419 494.511 136.679C495.751 135.938 496.769 134.878 497.46 133.61C498.088 132.419 498.398 131.086 498.36 129.74V63.61C498.349 56.0167 495.325 48.7383 489.951 43.3737C484.577 38.0092 477.293 34.9973 469.7 35Z" fill="#00A4FF"/>
<path d="M519.73 63.61V108.32C519.726 112.085 520.464 115.814 521.902 119.293C523.34 122.773 525.45 125.934 528.111 128.598C530.772 131.262 533.931 133.375 537.409 134.816C540.887 136.258 544.615 137 548.38 137H561.14V150.6C561.129 154.009 559.77 157.276 557.358 159.685C554.947 162.095 551.679 163.452 548.27 163.46C544.39 163.46 541.19 161.29 539.19 159.46C537.679 158.08 535.696 157.332 533.65 157.369C531.604 157.406 529.65 158.226 528.19 159.66C527.441 160.347 526.839 161.179 526.421 162.105C526.004 163.032 525.779 164.034 525.76 165.05C525.748 166.132 525.953 167.206 526.363 168.208C526.774 169.209 527.381 170.118 528.15 170.88C532.297 174.965 537.581 177.704 543.309 178.739C549.038 179.774 554.946 179.056 560.26 176.68C570.47 172.15 577.06 161.68 577.06 149.91V35H548.38C540.788 35 533.507 38.013 528.136 43.3772C522.764 48.7415 519.741 56.0185 519.73 63.61ZM561.14 121.08H548.38C544.996 121.08 541.75 119.736 539.357 117.343C536.964 114.95 535.62 111.704 535.62 108.32V63.61C535.62 61.9343 535.95 60.2751 536.591 58.727C537.233 57.1788 538.172 55.7722 539.357 54.5873C540.542 53.4024 541.949 52.4625 543.497 51.8213C545.045 51.18 546.704 50.85 548.38 50.85H561.14V121.08Z" fill="#00A4FF"/>
</svg>
