<svg xmlns="http://www.w3.org/2000/svg" width="154" height="34" fill="none" data-name="Layer 1" viewBox="0 0 48 31.86"><path fill="#ff6100" d="M0 22.7v8.87h6.52v-7.78c0-3.46 1.92-5.69 6.59-5.85v-6.51C4.53 11.58 0 16 0 22.7M37.68 11.14a10.06 10.06 0 0 0-10.4 10.36c0 5.91 3.62 9.78 9.74 10.36l4.28-3.22.14.07v2.86H48V21.5c0-6.27-4.12-10.39-10.32-10.36m0 14.35a3.8 3.8 0 0 1-3.88-4 3.8 3.8 0 0 1 3.88-4 3.74 3.74 0 0 1 3.8 4 3.76 3.76 0 0 1-3.8 4M23.94 11.43h-6.52v20.15h6.52ZM20.68 0a4.34 4.34 0 0 0-4.26 5.18A4.35 4.35 0 0 0 25 4.34a4.3 4.3 0 0 0-.33-1.66 4.34 4.34 0 0 0-4-2.68Z"/></svg>