<svg width="106" height="32" viewBox="0 0 106 32" fill="none" xmlns="http://www.w3.org/2000/svg">
<path d="M23.9201 16.986L20.7256 11.8789C20.3513 11.2805 19.6561 10.9627 18.958 11.0711L13.4635 11.9228L16.6375 7.35976C17.0408 6.78015 17.0595 6.01637 16.6852 5.41806L13.4907 0.31094C13.2156 -0.129379 12.5624 -0.0957222 12.3341 0.371708L5.68025 14.0019L18.8804 14C19.5326 14 19.9602 14.6825 19.6739 15.2686L18.3414 17.9984H23.3587C23.879 17.9975 24.1952 17.4263 23.9201 16.986ZM4.34779 16.7317L5.68025 14.0019H0.662945C0.142687 14.0019 -0.173584 14.5731 0.101516 15.0144L3.29605 20.1205C3.67033 20.7198 4.36557 21.0376 5.06361 20.9292L10.5581 20.0775L7.38418 24.6406C6.98089 25.2202 6.96218 25.983 7.33646 26.5823L10.531 31.6894C10.8061 32.1297 11.4592 32.0951 11.6875 31.6286L18.3414 17.9984L5.14127 18.0003C4.48908 18.0003 4.06146 17.3169 4.34779 16.7317Z" fill="#051973"/>
<path d="M29.1783 15.0314C29.9897 14.3445 31.1284 13.9955 32.6048 13.9955C33.8194 13.9955 34.9417 14.1983 35.9715 14.6132C36.1628 14.6903 36.291 14.8734 36.291 15.08V17.2232C36.291 17.4353 36.0754 17.5801 35.8789 17.5002C34.7584 17.0433 33.6571 16.8106 32.5824 16.8106C31.6017 16.8106 31.1172 17.1484 31.1172 17.6778C31.1172 18.0721 31.4553 18.3422 32.1428 18.4889L33.3826 18.7478C35.7162 19.1982 36.8208 20.2681 36.8208 22.2048C36.8208 23.3425 36.3924 24.2546 35.5245 24.9414C34.6565 25.6398 33.4504 25.989 31.9061 25.989C30.7548 25.989 29.5557 25.7698 28.3089 25.3222C28.1125 25.2517 27.9834 25.0624 27.9834 24.8536V22.58C27.9834 22.3655 28.2023 22.2198 28.3996 22.3048C28.9271 22.5319 29.4762 22.7183 30.0462 22.8697C30.7674 23.0608 31.3987 23.151 31.951 23.151C32.9542 23.151 33.4504 22.8468 33.4504 22.2277C33.4504 21.7656 33.101 21.4731 32.4136 21.3493L31.1172 21.1012C29.009 20.7073 27.9609 19.5584 27.9609 17.6778C27.9609 16.6078 28.3669 15.7294 29.1783 15.0314ZM43.5828 13.9955C45.33 13.9955 46.7049 14.5473 47.708 15.6397C48.7001 16.7433 49.1961 18.1847 49.1961 19.964C49.1964 20.177 49.1925 20.367 49.1844 20.534C49.1737 20.7456 48.9969 20.9101 48.7846 20.9101H41.1593C41.193 21.6418 41.4975 22.2277 42.0722 22.6557C42.647 23.0949 43.312 23.3089 44.0673 23.3089C45.3917 23.3089 46.6974 22.9258 47.9844 22.1595C48.1509 22.0604 48.3618 22.1796 48.3618 22.373V24.4359C48.3618 24.6101 48.2725 24.7746 48.1224 24.8629C47.5715 25.1872 46.985 25.4446 46.3555 25.6511C45.6339 25.8763 44.7547 25.989 43.7291 25.989C41.5199 25.989 39.6825 25.0657 38.6003 23.2075C38.0592 22.2726 37.7889 21.1802 37.7889 19.9191C37.7435 16.4391 40.3928 13.9278 43.5828 13.9955ZM45.9384 18.7478C45.9047 18.1735 45.6793 17.6778 45.2846 17.2722C44.8791 16.8671 44.3151 16.6644 43.5828 16.6644C42.9177 16.6644 42.3654 16.8783 41.9371 17.2951C41.5087 17.7114 41.272 18.196 41.2379 18.7478H45.9384ZM50.7394 25.24V14.7669C50.7394 14.5459 50.9185 14.367 51.1393 14.367H53.529C53.7498 14.367 53.9293 14.5459 53.9293 14.7669V15.2566C54.7744 14.4118 55.8229 13.9955 57.0851 13.9955C58.1561 13.9955 59.1704 14.367 59.9482 15.0426C60.7264 15.7182 61.2221 16.8218 61.2221 18.117V25.24C61.2221 25.461 61.043 25.6399 60.8218 25.6399H58.3871C58.1664 25.6399 57.9873 25.461 57.9873 25.24V18.9281C57.9873 17.7231 57.1866 16.9456 56.0932 16.9456C55.2706 16.9456 54.5602 17.34 53.9742 18.117V25.24C53.9742 25.461 53.7951 25.6399 53.5739 25.6399H51.1393C50.9185 25.6399 50.7394 25.461 50.7394 25.24ZM65.0307 14.8062C65.8426 14.2657 66.7782 13.9955 67.8377 13.9955C69.0999 13.9955 70.1596 14.3894 71.0051 15.1664V9.31616C71.0051 9.09516 71.1843 8.91621 71.405 8.91621H73.8396C74.0609 8.91621 74.24 9.09516 74.24 9.31616V25.24C74.24 25.461 74.0609 25.6399 73.8396 25.6399H71.405C71.1843 25.6399 71.0051 25.461 71.0051 25.24V24.784C70.0693 25.5834 69.0213 25.989 67.8377 25.989C66.7779 25.989 65.8426 25.7189 65.0307 25.1671C64.2081 24.6148 63.588 23.8943 63.1708 22.9823C62.7425 22.0698 62.5283 21.0676 62.5283 19.964C62.5283 17.7904 63.3963 15.8986 65.0307 14.8062ZM66.6428 22.1375C67.1502 22.6669 67.8035 22.937 68.6042 22.937C69.551 22.937 70.3513 22.5316 71.0051 21.7208V18.2408C70.3401 17.4189 69.5395 17.0134 68.6042 17.0134C67.8038 17.0134 67.15 17.2836 66.6428 17.824C66.1354 18.3646 65.8763 19.0744 65.8763 19.964C65.8763 20.876 66.1354 21.6082 66.6428 22.1375Z" fill="#051973"/>
<path d="M76.4033 25.2399V14.7669C76.4033 14.5459 76.5824 14.3669 76.8036 14.3669H79.1929C79.4141 14.3669 79.5933 14.5459 79.5933 14.7669V15.2565C80.3261 14.4118 81.3292 13.9955 82.5914 13.9955C83.9444 13.9955 85.1617 14.5697 85.8492 15.6056C86.785 14.5356 87.9682 13.9955 89.4226 13.9955C90.8653 13.9955 92.1163 14.6033 92.8828 15.8649C93.2663 16.5064 93.4576 17.2498 93.4576 18.117V25.2399C93.4576 25.4609 93.2785 25.6399 93.0578 25.6399H90.6343C90.4131 25.6399 90.234 25.4609 90.234 25.2399V18.9276C90.234 17.7002 89.5578 16.9456 88.4756 16.9456C87.7203 16.9456 87.089 17.3175 86.5596 18.0497V25.2399C86.5596 25.4609 86.38 25.6399 86.1592 25.6399H83.7246C83.5034 25.6399 83.3243 25.4609 83.3243 25.2399V18.9276C83.3243 17.7002 82.6817 16.9456 81.5995 16.9456C80.8218 16.9456 80.168 17.3399 79.6386 18.117V25.2399C79.6386 25.4609 79.459 25.6399 79.2383 25.6399H76.8036C76.5824 25.6399 76.4033 25.4609 76.4033 25.2399ZM95.5172 25.2399V14.7669C95.5172 14.5459 95.6963 14.3669 95.917 14.3669H98.3068C98.5275 14.3669 98.7071 14.5459 98.7071 14.7669V15.2565C99.5522 14.4118 100.601 13.9955 101.863 13.9955C102.934 13.9955 103.948 14.3669 104.726 15.0425C105.504 15.7182 106 16.8218 106 18.117V25.2399C106 25.4609 105.821 25.6399 105.6 25.6399H103.165C102.944 25.6399 102.765 25.4609 102.765 25.2399V18.9276C102.765 17.7231 101.964 16.9456 100.871 16.9456C100.048 16.9456 99.338 17.3399 98.752 18.117V25.2399C98.752 25.4609 98.5729 25.6399 98.3517 25.6399H95.917C95.6963 25.6399 95.5172 25.4609 95.5172 25.2399Z" fill="#051973"/>
</svg>
