<svg width="156" height="36" viewBox="0 0 156 36" fill="none" xmlns="http://www.w3.org/2000/svg">
<path fill-rule="evenodd" clip-rule="evenodd" d="M9.38031 10.175H14.576V5.83855H9.38031V0L4.8567 1.33232V5.83855H1V10.175H4.84636V20.1906C4.84636 22.9118 5.60116 24.7843 7.11075 25.7976C8.62034 26.811 11.107 27.1094 14.5708 26.6927V22.6495C13.4283 22.706 12.4719 22.7112 11.7016 22.67C10.9364 22.6237 10.3574 22.418 9.9645 22.0424C9.57676 21.6669 9.38031 21.0496 9.38031 20.1854V10.175ZM38.2641 5.83848H33.7405V8.79634C32.0345 6.46092 29.5892 5.29321 26.4045 5.29321C23.5249 5.29321 21.0641 6.34775 19.0272 8.46197C16.9851 10.5762 15.9666 13.174 15.9666 16.2604C15.9666 19.3212 16.9851 21.9138 19.0272 24.0383C21.0693 26.1628 23.5249 27.2276 26.4045 27.2276C29.5892 27.2276 32.0345 26.0445 33.7405 23.6834V26.6875H38.2641V5.83848ZM27.118 22.9375C25.2155 22.9375 23.6387 22.3047 22.3824 21.0393C21.1261 19.7738 20.4954 18.1843 20.4954 16.2656C20.4954 14.3468 21.1261 12.7573 22.3824 11.4918C23.6387 10.2264 25.2155 9.59368 27.118 9.59368C29.0153 9.59368 30.5973 10.2264 31.8535 11.4918C33.1098 12.7573 33.7405 14.3468 33.7405 16.2656C33.7405 18.1843 33.1098 19.7738 31.8535 21.0393C30.5973 22.3047 29.0153 22.9375 27.118 22.9375ZM76.9087 5.83848H81.4323V26.6875H76.9087V23.6834C75.2026 26.0445 72.7573 27.2276 69.5727 27.2276C66.6931 27.2276 64.2374 26.1628 62.1953 24.0383C60.1532 21.9138 59.1348 19.3212 59.1348 16.2604C59.1348 13.174 60.1532 10.5762 62.1953 8.46197C64.2322 6.34775 66.6931 5.29321 69.5727 5.29321C72.7573 5.29321 75.2026 6.46092 76.9087 8.79634V5.83848ZM65.5506 21.0393C66.8068 22.3047 68.3836 22.9375 70.2861 22.9375C72.1835 22.9375 73.7654 22.3047 75.0217 21.0393C76.278 19.7738 76.9087 18.1843 76.9087 16.2656C76.9087 14.3468 76.278 12.7573 75.0217 11.4918C73.7654 10.2264 72.1835 9.59368 70.2861 9.59368C68.3836 9.59368 66.8068 10.2264 65.5506 11.4918C64.2943 12.7573 63.6636 14.3468 63.6636 16.2656C63.6636 18.1843 64.2943 19.7738 65.5506 21.0393ZM105.09 8.48775C103.048 6.36324 100.592 5.29841 97.7122 5.29841C94.5276 5.29841 92.0823 6.47641 90.3763 8.84269V5.83854H85.8526V35.0313H90.3763V23.7297C92.0823 26.0651 94.5276 27.2328 97.7122 27.2328C100.592 27.2328 103.048 26.1783 105.09 24.0641C107.132 21.9499 108.15 19.3521 108.15 16.2656C108.15 13.2049 107.127 10.6123 105.09 8.48775ZM96.9988 22.9375C95.0963 22.9375 93.5195 22.3048 92.2632 21.0393C91.007 19.7739 90.3763 18.1844 90.3763 16.2656C90.3763 14.3469 91.007 12.7573 92.2632 11.4919C93.5195 10.2265 95.0963 9.59373 96.9988 9.59373C98.8961 9.59373 100.478 10.2265 101.734 11.4919C102.991 12.7573 103.621 14.3469 103.621 16.2656C103.621 18.1844 102.991 19.7739 101.734 21.0393C100.478 22.3048 98.8961 22.9375 96.9988 22.9375ZM128.033 5.83848H132.557V26.6875H128.033V23.6834C126.327 26.0445 123.882 27.2276 120.697 27.2276C117.818 27.2276 115.362 26.1628 113.32 24.0383C111.278 21.9138 110.259 19.3212 110.259 16.2604C110.259 13.174 111.278 10.5762 113.32 8.46197C115.357 6.34775 117.818 5.29321 120.697 5.29321C123.882 5.29321 126.327 6.46092 128.033 8.79634V5.83848ZM116.675 21.0393C117.931 22.3047 119.508 22.9375 121.411 22.9375C123.308 22.9375 124.89 22.3047 126.146 21.0393C127.402 19.7738 128.033 18.1843 128.033 16.2656C128.033 14.3468 127.402 12.7573 126.146 11.4918C124.89 10.2264 123.308 9.59368 121.411 9.59368C119.508 9.59368 117.931 10.2264 116.675 11.4918C115.419 12.7573 114.788 14.3468 114.788 16.2656C114.788 18.1843 115.419 19.7738 116.675 21.0393ZM155.925 5.83857H151.106L145.75 20.9776L139.5 5.84372H134.552L143.439 26.3172L143.227 26.7339C142.669 28.1794 141.956 29.2442 141.092 29.9232C140.224 30.6022 139.081 30.9006 137.654 30.8183V35.0313C142.457 35.3091 145.869 32.7473 147.88 27.3563L155.925 5.83857Z" fill="#0B3747"/>
<path d="M54.7611 5.83862L51.7212 10.0928H51.7316L49.7153 12.886C48.7072 14.2852 49.7102 16.2348 51.4421 16.2348C52.1296 16.2348 52.7759 15.9056 53.1739 15.3501L57.8475 8.83763L60.0136 5.83862H54.7611V5.83862Z" fill="#00A9DE"/>
<path d="M42.3431 5.83862V10.0928H51.7212L54.7611 5.83862H42.3431Z" fill="#0B84AE"/>
<path d="M48.0869 22.4335L48.6711 21.6207L50.129 19.5888C51.1371 18.1845 50.129 16.2349 48.3919 16.2349C47.7044 16.2349 47.0581 16.5641 46.6601 17.1196L41.9245 23.6835L39.7273 26.6877H45.1505L48.1076 22.4335H48.0869Z" fill="#B2F000"/>
<path d="M58.2714 22.4336H48.1075L45.1504 26.6878H58.2714V22.4336Z" fill="#87B613"/>
</svg>
