<?xml version="1.0" encoding="UTF-8"?>
<svg xmlns="http://www.w3.org/2000/svg" id="div-Img-Logo" width="149.406" height="28.77" viewBox="0 0 149.406 28.77">
  <path id="Path_13" data-name="Path 13" d="M662.92,30.152A7.7,7.7,0,0,0,668.6,28.8l2.29,3.207c-.808.916-4.257,2.56-7.706,2.56-9.916.3-8.542-8.946-8.542-8.946.135-2.048,2.512-9.963,12.044-9.431,9.439.527,5.847,10.886,5.847,10.886H659.605s-.162,2.587,3.314,3.072m-2.56-6.817h8.3s.269-2.775-3.665-2.775a5.132,5.132,0,0,0-4.635,2.775" transform="translate(-641.083 -11.867)" fill="#e35e57"></path>
  <path id="Path_14" data-name="Path 14" d="M733.3,16.921h-4.736l-3.092,17.545H730.6l1.557-9.087a5.136,5.136,0,0,1,1.246-2.606,4.6,4.6,0,0,1,2.228-1.361,3.963,3.963,0,0,1,3.951.687l2.871-4a5.162,5.162,0,0,0-3.852-1.619,7.005,7.005,0,0,0-5.227,2.331Z" transform="translate(-693.113 -12.095)" fill="#213871"></path>
  <path id="Path_15" data-name="Path 15" d="M793.041,16.921H788.3l-3.092,17.545h5.129l1.557-9.087a5.136,5.136,0,0,1,1.246-2.606,4.6,4.6,0,0,1,2.228-1.361,3.963,3.963,0,0,1,3.951.687l2.871-4a5.162,5.162,0,0,0-3.852-1.619,7.005,7.005,0,0,0-5.227,2.331Z" transform="translate(-736.961 -12.095)" fill="#213871"></path>
  <path id="Path_16" data-name="Path 16" d="M859.568,17.034h4.862l-3.2,17.536H856.7l.042-2.161a8.233,8.233,0,0,1-6.524,2.493c-4.7-.042-7.4-3.864-6.815-9.017A10.515,10.515,0,0,1,853,16.66c5.012-.347,6.066,2.318,6.066,2.318Zm-1.686,8.547s.679-4.431-3.856-4.453c-4.976-.025-5.474,4.926-5.474,4.926s-.721,4.406,4.106,4.354c4.628-.05,5.225-4.827,5.225-4.827" transform="translate(-779.613 -12.205)" fill="#213871"></path>
  <path id="Path_17" data-name="Path 17" d="M613.835,4.8c.472-2.672.847-4.8.847-4.8L609.5.565,608.759,4.8H604.48l-.638,4.22h4.18l-1.271,7.288s-.51,2.973.51,4.361,2.917,2.973,8.807,1.246l-.4-4.219s-3.313,1.359-3.794-.623a3.736,3.736,0,0,1,.077-1.753c.067-.314.219-1.274.669-3.806l-.984-2.493h3.524a5.062,5.062,0,0,0,4.992-4.22Z" transform="translate(-603.841)" fill="#213871"></path>
  <path id="Path_18" data-name="Path 18" d="M612.621,36.4l-8.781-2.493h7.8Z" transform="translate(-603.84 -24.889)" fill="#e35e57"></path>
  <path id="Path_19" data-name="Path 19" d="M936.632,17.557a7.018,7.018,0,0,1,2.767,2.718,8.217,8.217,0,0,1,1.026,4.183,10.621,10.621,0,0,1-1.286,5.225,9.442,9.442,0,0,1-8.416,4.964q-4,0-5.664-2.6L923.334,40.7h-5.079l4.753-23.83h4.818l-.358,1.726a7.685,7.685,0,0,1,5.372-1.986,7.834,7.834,0,0,1,3.793.944m-3.825,12.159a4.951,4.951,0,0,0,1.823-2.035,6.608,6.608,0,0,0,.651-3,3.8,3.8,0,0,0-1.058-2.832,4.021,4.021,0,0,0-2.946-1.042,4.871,4.871,0,0,0-2.637.732,4.953,4.953,0,0,0-1.823,2.035,6.607,6.607,0,0,0-.651,3,3.825,3.825,0,0,0,1.042,2.832,3.961,3.961,0,0,0,2.93,1.042,4.931,4.931,0,0,0,2.669-.732" transform="translate(-834.609 -12.193)" fill="#213871"></path>
  <path id="Path_20" data-name="Path 20" d="M1027.261,16.873l-3.483,17.514h-4.818l.326-1.726a8.163,8.163,0,0,1-9.148,1.042,7.036,7.036,0,0,1-2.751-2.718,8.212,8.212,0,0,1-1.026-4.183,10.619,10.619,0,0,1,1.286-5.225,9.5,9.5,0,0,1,3.5-3.646,9.364,9.364,0,0,1,4.883-1.318q4.036,0,5.7,2.637l.456-2.377Zm-9.115,12.843a4.953,4.953,0,0,0,1.823-2.035,6.612,6.612,0,0,0,.651-3,3.8,3.8,0,0,0-1.058-2.832,4.021,4.021,0,0,0-2.946-1.042,4.871,4.871,0,0,0-4.493,2.767,6.61,6.61,0,0,0-.651,3,3.793,3.793,0,0,0,1.058,2.832,4.018,4.018,0,0,0,2.946,1.042,4.931,4.931,0,0,0,2.669-.732" transform="translate(-899.276 -12.193)" fill="#213871"></path>
  <path id="Path_21" data-name="Path 21" d="M1098.079,17.592l-11.655,18.686a13.535,13.535,0,0,1-3.662,4.232,7.715,7.715,0,0,1-4.346,1.172,8.748,8.748,0,0,1-2.686-.423,5.549,5.549,0,0,1-2.067-1.107l2.344-3.646a4,4,0,0,0,2.8,1.074,2.933,2.933,0,0,0,1.693-.488,5.712,5.712,0,0,0,1.465-1.66l.162-.293-4.037-17.547h5.079l2.6,11.915,7.292-11.915Z" transform="translate(-948.673 -12.912)" fill="#213871"></path>
</svg>
