<svg id="Layer_1" data-name="Layer 1" xmlns="http://www.w3.org/2000/svg" viewBox="0 0 385.62 85.64"><defs><style>.cls-1{fill:#002d24;}.cls-2{fill:#46e696;}</style></defs><path class="cls-1" d="M55.83,4.83c3.78,0,6.83-1.16,8.61-2.94H65.6l4.51,23.82-1.79.42C61.5,15.85,54.89,9.55,48.8,9.55c-4.19,0-5.88,1.89-5.88,4.83V72.21c0,4.51,2.42,7.77,7.14,9.45v1.88H20V81.66c5-1.68,7.35-4.94,7.35-9.45V14.38c0-2.94-1.78-4.83-5.88-4.83-6,0-12.69,6.3-19.41,16.58L0,25.71,4.72,1.89H5.88c2,1.78,4.72,2.94,8.71,2.94Z"/><path class="cls-1" d="M79.17,72.63V19.73c0-5.14-2.2-8.39-6.4-9.66v-2A38.1,38.1,0,0,0,92,0h1.79V33.8c0,2.3-.11,5-.21,6.29l.21.21c5.35-5.35,16.06-12.38,23.93-12.38,7,0,11.12,4.83,11.12,12.07V72.63c0,4.2,1.89,7.56,5.25,9v1.88H108V81.66c4-2.31,6.09-4.83,6.09-8.82V45.34c0-5-1.78-7.56-5.56-7.66-3.47-.11-8.92,2.41-14.8,6.3V72.84c0,4,2.41,6.61,6.09,8.82v1.88H73.29V81.66a9.52,9.52,0,0,0,5.88-9"/><path class="cls-1" d="M175.34,72.63h-.21C169.89,78,159.81,85,151.83,85c-7.13,0-10.91-4.82-10.91-12V47.44c0-5.25-1.37-8.71-5.88-10.18V35.37a35.76,35.76,0,0,0,18.68-8.08h1.58v40.3c0,5.25,1.78,7.87,5.77,8,3.46.21,8.08-2.42,14.06-6.51v-21c0-5.56-1.26-9.55-6.08-10.81V35.37a39.44,39.44,0,0,0,19.1-8.08h1.68V68.12c0,6,1.57,8.81,6,10.18v1.89a54.51,54.51,0,0,0-18.68,5.45h-2v-6.5c0-2.42.21-5.15.21-6.51"/><path class="cls-1" d="M205.08,72.21V47c0-5.77-1.68-8.5-6.3-9.76V35.37a38.59,38.59,0,0,0,19.11-8.08h1.89v6a53.47,53.47,0,0,1-.32,6.51l.32.1c5.24-5.35,15.74-12,23.82-12,7.24,0,11.13,4.82,11.13,12.07V72.21c0,4.62,2,8,5.45,9.44v1.89h-26V81.65c3.89-2.3,6.09-4.82,6.09-9.44V45.34c0-5-1.68-7.56-5.67-7.66-3.67-.11-8.71,2-14.79,5.88V72.21c0,4.62,2.41,7.14,6.08,9.44v1.89H198.78V81.65a9.72,9.72,0,0,0,6.3-9.44"/><path class="cls-1" d="M287.14,85.12c-12.7,0-25.61-9.13-25.61-27,0-16.58,11.55-30.22,27.19-30.22,12.59,0,22.14,8.92,22.14,22.14V52.9H275.07c.32,15.32,8.4,22.46,18.47,22.46a18,18,0,0,0,15.12-8.19l1.68,1c-3.15,10.81-13,17-23.2,17M275.28,48.17h20.57c0-9.13-3.67-15-9.65-15-5.25,0-10,4.62-10.92,15"/><path class="cls-1" d="M335.84,85a76,76,0,0,1-22-3.57l6.93-16H322c2,9.87,10.07,14.28,17.94,14.28,6.51,0,10.4-3,10.4-7.14,0-4.73-5.15-7.24-11.55-9.34-9.55-3.26-21.1-6.72-21.1-17.84,0-10,9.24-17.53,23.3-17.53a60.88,60.88,0,0,1,16.59,2.31L352.63,44.4h-1.46a14.38,14.38,0,0,0-14.28-11.55c-5.35,0-8.71,2.73-8.71,6.4,0,5.67,7.87,7.87,15.74,10.71,8.5,2.94,16.9,7,16.9,16.69,0,10.8-10.39,18.36-25,18.36"/><path class="cls-2" d="M365.78,74.94a9.82,9.82,0,0,1,10-9.87,9.76,9.76,0,1,1,0,19.52,9.77,9.77,0,0,1-10-9.65"/></svg>